<!--?xml version="1.0" standalone="no"?-->              <svg id="sw-js-blob-svg" viewBox="0 0 100 100" xmlns="http://www.w3.org/2000/svg" version="1.1">                    <defs>                         <linearGradient id="sw-gradient" x1="0" x2="1" y1="1" y2="0">                            <stop id="stop1" stop-color="rgba(248, 117, 55, 1)" offset="0%"></stop>                            <stop id="stop2" stop-color="rgba(251, 168, 31, 1)" offset="100%"></stop>                        </linearGradient>                    </defs>                <path fill="url(#sw-gradient)" d="M19.3,-23.1C26.1,-17.4,33.2,-12.2,36.3,-4.9C39.4,2.5,38.5,12.1,34.1,19.6C29.7,27.2,21.8,32.7,13.3,35.4C4.7,38.1,-4.5,38,-13.4,35.4C-22.4,32.8,-30.9,27.8,-33.8,20.6C-36.6,13.4,-33.6,4,-31.2,-4.8C-28.8,-13.5,-26.9,-21.6,-21.8,-27.6C-16.6,-33.6,-8.3,-37.5,-1,-36.2C6.3,-35,12.6,-28.8,19.3,-23.1Z" width="100%" height="100%" transform="translate(50 50)" style="transition: all 0.3s ease 0s;" stroke-width="0"></path>              </svg>